<?xml version="1.0" encoding="iso-8859-1"?>
<!-- Generator: Adobe Illustrator 16.0.0, SVG Export Plug-In . SVG Version: 6.00 Build 0)  -->
<!DOCTYPE svg PUBLIC "-//W3C//DTD SVG 1.1//EN" "http://www.w3.org/Graphics/SVG/1.1/DTD/svg11.dtd">
<svg version="1.1" id="Capa_1" xmlns="http://www.w3.org/2000/svg" xmlns:xlink="http://www.w3.org/1999/xlink" x="0px" y="0px"
	 width="38.93px" height="38.929px" viewBox="0 0 38.93 38.929" style="enable-background:new 0 0 38.93 38.929;"
	 xml:space="preserve">
<g>
	<path d="M36.884,1.408h-2.946H4.996H2.05C0.918,1.408,0,2.325,0,3.457v8.178c0,1.131,0.918,2.049,2.05,2.049h0.896v21.789
		c0,1.133,0.916,2.05,2.049,2.05h28.941c1.131,0,2.049-0.917,2.049-2.05V13.686h0.896c1.131,0,2.049-0.917,2.049-2.049V3.459
		C38.933,2.326,38.015,1.408,36.884,1.408z M31.888,33.423H7.045V13.686h24.843V33.423z"/>
	<g>
		<g>
			<g>
				<path d="M13.502,15.356h-0.041l-2.683,1.276l-0.541-2.466l3.721-1.73h2.726v14.058h-3.181L13.502,15.356L13.502,15.356z"/>
				<path d="M25.513,15.356H25.47l-2.683,1.276l-0.541-2.466l3.721-1.73h2.729v14.058h-3.183V15.356z"/>
			</g>
		</g>
	</g>
</g>
<g>
</g>
<g>
</g>
<g>
</g>
<g>
</g>
<g>
</g>
<g>
</g>
<g>
</g>
<g>
</g>
<g>
</g>
<g>
</g>
<g>
</g>
<g>
</g>
<g>
</g>
<g>
</g>
<g>
</g>
</svg>
